<!-- <svg  xmlns="http://www.w3.org/2000/svg" width="24" height="24"  
fill="#ffffff" viewBox="0 0 24 24" >
<path d="M21.93 7.66c-.02-.05-.04-.11-.07-.16a.6.6 0 0 0-.06-.08c-.03-.04-.06-.09-.1-.12-.03-.03-.06-.04-.09-.07-.04-.03-.07-.06-.11-.09h-.01l-9-5.01a.99.99 0 0 0-.97 0L2.59 7.1s-.06.02-.09.04a.99.99 0 0 0-.49.86v8c0 .36.2.7.51.87l9 5 .15.06c.03.01.06.03.09.03a1.1 1.1 0 0 0 .5 0c.03 0 .06-.02.09-.03.05-.02.1-.03.15-.06l9-5c.32-.18.51-.51.51-.87V8c0-.09-.01-.18-.04-.26 0-.03-.02-.05-.03-.08ZM12 4.15l6.94 3.86-2.24 1.25-6.84-3.91L12 4.16ZM7.82 6.48l6.84 3.91-2.65 1.47L5.09 8l2.74-1.52ZM4 9.7l7 3.89v5.71l-7-3.89zm16 5.71-7 3.89v-5.71l3-1.67V15l2-1v-3.19l2-1.11z"></path>
</svg> -->

<svg  xmlns="http://www.w3.org/2000/svg" width="24" height="24"  
fill="#ffffff" viewBox="0 0 24 24" >
<path d="m6,8.44c-.02,5.1,5.17,9.18,5.39,9.35.18.14.4.21.61.21s.43-.07.61-.21c.22-.17,5.41-4.25,5.39-9.35,0-3.55-2.69-6.44-6-6.44s-6,2.89-6,6.44Zm10,0h0c.01,3.19-2.74,6.08-4,7.24-1.26-1.15-4.01-4.04-4-7.24,0-2.45,1.79-4.44,4-4.44s4,1.99,4,4.44Z"></path><path d="M12 6A2 2 0 1 0 12 10 2 2 0 1 0 12 6z"></path><path d="m18.02,14.73c-.4.64-.84,1.23-1.27,1.76,2.13.48,3.25,1.19,3.25,1.51,0,.51-2.75,2-8,2s-8-1.49-8-2c0-.32,1.12-1.03,3.25-1.51-.43-.53-.86-1.12-1.27-1.76-2.32.64-3.98,1.71-3.98,3.27,0,2.75,5.18,4,10,4s10-1.25,10-4c0-1.56-1.67-2.63-3.98-3.27Z"></path>
</svg>